TITLE ""
FILE "P1Q_t_1039-1048.mp3" MP3
  TRACK 01 AUDIO
    TITLE "P1Q_t_1039-1048_01"
    INDEX 01 00:00:00
  TRACK 02 AUDIO
    TITLE "P1Q_t_1039-1048_02"
    INDEX 01 00:00:71
  TRACK 03 AUDIO
    TITLE "P1Q_t_1039-1048_03"
    INDEX 01 00:01:18
  TRACK 04 AUDIO
    TITLE "P1Q_t_1039-1048_04"
    INDEX 01 00:02:19
  TRACK 05 AUDIO
    TITLE "P1Q_t_1039-1048_05"
    INDEX 01 00:02:37
  TRACK 06 AUDIO
    TITLE "P1Q_t_1039-1048_06"
    INDEX 01 00:06:34
  TRACK 07 AUDIO
    TITLE "P1Q_t_1039-1048_07"
    INDEX 01 00:07:04
  TRACK 08 AUDIO
    TITLE "P1Q_t_1039-1048_08"
    INDEX 01 00:08:37
  TRACK 09 AUDIO
    TITLE "P1Q_t_1039-1048_09"
    INDEX 01 00:08:59
  TRACK 10 AUDIO
    TITLE "P1Q_t_1039-1048_10"
    INDEX 01 00:12:21
  TRACK 11 AUDIO
    TITLE "P1Q_t_1039-1048_11"
    INDEX 01 00:12:41
  TRACK 12 AUDIO
    TITLE "P1Q_t_1039-1048_12"
    INDEX 01 00:17:22
  TRACK 13 AUDIO
    TITLE "P1Q_t_1039-1048_13"
    INDEX 01 00:17:70
  TRACK 14 AUDIO
    TITLE "P1Q_t_1039-1048_14"
    INDEX 01 00:19:06
  TRACK 15 AUDIO
    TITLE "P1Q_t_1039-1048_15"
    INDEX 01 00:19:25
  TRACK 16 AUDIO
    TITLE "P1Q_t_1039-1048_16"
    INDEX 01 00:23:37
  TRACK 17 AUDIO
    TITLE "P1Q_t_1039-1048_17"
    INDEX 01 00:23:54
  TRACK 18 AUDIO
    TITLE "P1Q_t_1039-1048_18"
    INDEX 01 00:28:54
  TRACK 19 AUDIO
    TITLE "P1Q_t_1039-1048_19"
    INDEX 01 00:29:26
  TRACK 20 AUDIO
    TITLE "P1Q_t_1039-1048_20"
    INDEX 01 00:30:43
  TRACK 21 AUDIO
    TITLE "P1Q_t_1039-1048_21"
    INDEX 01 00:30:62
  TRACK 22 AUDIO
    TITLE "P1Q_t_1039-1048_22"
    INDEX 01 00:33:18
  TRACK 23 AUDIO
    TITLE "P1Q_t_1039-1048_23"
    INDEX 01 00:33:37
  TRACK 24 AUDIO
    TITLE "P1Q_t_1039-1048_24"
    INDEX 01 00:37:60
  TRACK 25 AUDIO
    TITLE "P1Q_t_1039-1048_25"
    INDEX 01 00:38:32
  TRACK 26 AUDIO
    TITLE "P1Q_t_1039-1048_26"
    INDEX 01 00:39:65
  TRACK 27 AUDIO
    TITLE "P1Q_t_1039-1048_27"
    INDEX 01 00:40:12
  TRACK 28 AUDIO
    TITLE "P1Q_t_1039-1048_28"
    INDEX 01 00:41:48
  TRACK 29 AUDIO
    TITLE "P1Q_t_1039-1048_29"
    INDEX 01 00:41:66
  TRACK 30 AUDIO
    TITLE "P1Q_t_1039-1048_30"
    INDEX 01 00:45:68
  TRACK 31 AUDIO
    TITLE "P1Q_t_1039-1048_31"
    INDEX 01 00:46:38
  TRACK 32 AUDIO
    TITLE "P1Q_t_1039-1048_32"
    INDEX 01 00:47:41
  TRACK 33 AUDIO
    TITLE "P1Q_t_1039-1048_33"
    INDEX 01 00:47:63
  TRACK 34 AUDIO
    TITLE "P1Q_t_1039-1048_34"
    INDEX 01 00:48:64
  TRACK 35 AUDIO
    TITLE "P1Q_t_1039-1048_35"
    INDEX 01 00:49:11
  TRACK 36 AUDIO
    TITLE "P1Q_t_1039-1048_36"
    INDEX 01 00:55:27
  TRACK 37 AUDIO
    TITLE "P1Q_t_1039-1048_37"
    INDEX 01 00:55:74
  TRACK 38 AUDIO
    TITLE "P1Q_t_1039-1048_38"
    INDEX 01 00:57:10
  TRACK 39 AUDIO
    TITLE "P1Q_t_1039-1048_39"
    INDEX 01 00:57:32
  TRACK 40 AUDIO
    TITLE "P1Q_t_1039-1048_40"
    INDEX 01 01:00:36
  TRACK 41 AUDIO
    TITLE "P1Q_t_1039-1048_41"
    INDEX 01 01:00:56
  TRACK 42 AUDIO
    TITLE "P1Q_t_1039-1048_42"
    INDEX 01 01:04:36
  TRACK 43 AUDIO
    TITLE "P1Q_t_1039-1048_43"
    INDEX 01 01:05:06
  TRACK 44 AUDIO
    TITLE "P1Q_t_1039-1048_44"
    INDEX 01 01:06:31
  TRACK 45 AUDIO
    TITLE "P1Q_t_1039-1048_45"
    INDEX 01 01:06:50
  TRACK 46 AUDIO
    TITLE "P1Q_t_1039-1048_46"
    INDEX 01 01:11:40
  TRACK 47 AUDIO
    TITLE "P1Q_t_1039-1048_47"
    INDEX 01 01:11:59
  TRACK 48 AUDIO
    TITLE "P1Q_t_1039-1048_48"
    INDEX 01 01:16:41
  TRACK 49 AUDIO
    TITLE "P1Q_t_1039-1048_49"
    INDEX 01 01:17:13
  TRACK 50 AUDIO
    TITLE "P1Q_t_1039-1048_50"
    INDEX 01 01:18:30
  TRACK 51 AUDIO
    TITLE "P1Q_t_1039-1048_51"
    INDEX 01 01:18:55
  TRACK 52 AUDIO
    TITLE "P1Q_t_1039-1048_52"
    INDEX 01 01:20:74
  TRACK 53 AUDIO
    TITLE "P1Q_t_1039-1048_53"
    INDEX 01 01:21:19
  TRACK 54 AUDIO
    TITLE "P1Q_t_1039-1048_54"
    INDEX 01 01:25:34
  TRACK 55 AUDIO
    TITLE "P1Q_t_1039-1048_55"
    INDEX 01 01:26:04
  TRACK 56 AUDIO
    TITLE "P1Q_t_1039-1048_56"
    INDEX 01 01:27:33
  TRACK 57 AUDIO
    TITLE "P1Q_t_1039-1048_57"
    INDEX 01 01:27:52
  TRACK 58 AUDIO
    TITLE "P1Q_t_1039-1048_58"
    INDEX 01 01:29:63
  TRACK 59 AUDIO
    TITLE "P1Q_t_1039-1048_59"
    INDEX 01 01:30:08
  TRACK 60 AUDIO
    TITLE "P1Q_t_1039-1048_60"
    INDEX 01 01:34:45
